<?xml version="1.0" encoding="utf-8"?>
<!-- Generator: Adobe Illustrator 16.0.0, SVG Export Plug-In . SVG Version: 6.00 Build 0)  -->
<!DOCTYPE svg PUBLIC "-//W3C//DTD SVG 1.1//EN" "http://www.w3.org/Graphics/SVG/1.1/DTD/svg11.dtd">
<svg version="1.1" id="图层_1" xmlns="http://www.w3.org/2000/svg" xmlns:xlink="http://www.w3.org/1999/xlink" x="0px" y="0px"
	 width="287.5px" height="148px" viewBox="0 0 287.5 148" enable-background="new 0 0 287.5 148" xml:space="preserve">
<g id="图层_2">
	<g id="形状_1_2_">
		<g>
			<polygon fill="#FFFFFF" points="130.273,32.536 159.461,25.437 130.273,4.137 105.031,4.137 105.031,101.955 158.674,101.955 
				131.063,94.854 			"/>
		</g>
	</g>
	<g id="形状_2_2_">
		<g>
			<polygon fill="#FFFFFF" points="161.037,27.013 161.037,99.589 201.271,65.146 			"/>
		</g>
	</g>
</g>
<g id="图层_3">
	<g id="圆角矩形_1">
		<g>
			<path fill="#FFFFFF" d="M72.413,107.363H56.685c-1.629,0-2.949,1.318-2.949,2.949v24.576c0,1.629,1.32,2.949,2.949,2.949h15.729
				c1.631,0,2.95-1.32,2.95-2.949v-24.576C75.364,108.684,74.043,107.363,72.413,107.363z"/>
		</g>
	</g>
	<g>
		<path fill="#343333" d="M73.619,133.33c-1.527,0.8-3.44,1.197-5.74,1.189c-2.967-0.009-5.338-0.957-7.107-2.847
			c-1.77-1.891-2.65-4.387-2.643-7.487c0.008-3.336,1.014-6.018,3.016-8.045s4.54-3.037,7.619-3.027
			c1.977,0.004,3.612,0.289,4.904,0.854l-0.007,2.795c-1.478-0.822-3.104-1.238-4.876-1.242c-2.311-0.006-4.194,0.76-5.651,2.293
			c-1.456,1.537-2.188,3.607-2.194,6.222c-0.007,2.478,0.665,4.446,2.018,5.907c1.352,1.463,3.124,2.195,5.317,2.201
			c2.051,0.004,3.835-0.453,5.353-1.377L73.619,133.33z"/>
		<path fill="#FFFFFF" d="M82.475,115.754l-1.993-0.006l-0.04,16.195l1.992,0.006l-0.006,2.26l-6.659-0.018l0.006-2.262l1.992,0.006
			l0.04-16.195l-1.992-0.004l0.004-2.262l6.659,0.016L82.475,115.754z"/>
		<path fill="#FFFFFF" d="M84.86,130.324c0.632,0.555,1.478,1.011,2.537,1.371c1.061,0.357,2.067,0.539,3.021,0.541
			c2.907,0.008,4.362-1.021,4.366-3.092c0-0.578-0.152-1.102-0.463-1.564c-0.312-0.467-0.738-0.877-1.282-1.234
			c-0.545-0.356-1.562-0.906-3.059-1.652c-2.074-1.038-3.44-2.002-4.098-2.893c-0.658-0.887-0.986-1.902-0.984-3.044
			c0.004-1.722,0.698-3.084,2.084-4.087c1.386-1.004,3.128-1.504,5.232-1.499c2.06,0.005,3.569,0.261,4.532,0.763l-0.008,2.914
			c-1.246-0.869-2.822-1.305-4.729-1.311c-1.268-0.002-2.297,0.262-3.097,0.789c-0.8,0.527-1.201,1.267-1.202,2.209
			c-0.002,0.838,0.271,1.521,0.823,2.049c0.551,0.527,1.75,1.25,3.593,2.16c2.031,0.979,3.449,1.953,4.259,2.929
			c0.809,0.974,1.212,2.067,1.209,3.278c-0.005,1.818-0.667,3.213-1.99,4.182c-1.32,0.971-3.154,1.451-5.499,1.443
			c-0.82-0.002-1.778-0.117-2.868-0.348c-1.092-0.23-1.887-0.516-2.385-0.854L84.86,130.324z"/>
		<path fill="#FFFFFF" d="M106.332,115.813l-1.993-0.006l-0.04,16.196l1.992,0.005l-0.006,2.262l-6.66-0.018l0.007-2.261
			l1.993,0.004l0.041-16.196l-1.993-0.005l0.005-2.26l6.658,0.018L106.332,115.813z"/>
		<path fill="#FFFFFF" d="M108.357,124.162c0.01-3.344,0.922-6.002,2.736-7.977c1.814-1.977,4.27-2.959,7.361-2.949
			c2.881,0.006,5.194,0.978,6.947,2.918c1.752,1.938,2.623,4.461,2.616,7.563c-0.008,3.361-0.916,6.025-2.721,7.99
			c-1.808,1.967-4.216,2.945-7.229,2.938c-2.941-0.008-5.298-0.979-7.066-2.918C109.231,129.787,108.351,127.266,108.357,124.162z
			 M111.166,123.955c-0.006,2.506,0.629,4.516,1.904,6.029c1.275,1.513,2.943,2.273,5.004,2.279
			c2.209,0.004,3.948-0.716,5.213-2.162c1.266-1.443,1.901-3.469,1.908-6.072c0.006-2.676-0.606-4.74-1.838-6.197
			c-1.23-1.454-2.922-2.188-5.07-2.191c-2.111-0.004-3.826,0.76-5.14,2.289C111.833,119.457,111.174,121.471,111.166,123.955z"/>
		<path fill="#FFFFFF" d="M148.91,134.373l-3.17-0.008l-10.379-16.141c-0.291-0.457-0.529-0.906-0.705-1.354h-0.08
			c0.069,0.465,0.104,1.432,0.101,2.901l-0.036,14.563l-2.648-0.006l0.051-20.717l3.356,0.008l10.1,15.859
			c0.479,0.754,0.764,1.229,0.854,1.436h0.054c-0.089-0.588-0.13-1.598-0.128-3.023l0.035-14.24l2.646,0.007L148.91,134.373z"/>
		<path fill="#FFFFFF" d="M162.363,134.408l0.051-20.717l5.912,0.014c3.139,0.01,5.746,0.929,7.824,2.763
			c2.076,1.833,3.111,4.287,3.104,7.364c-0.009,3.211-1.054,5.779-3.143,7.707c-2.088,1.932-4.771,2.893-8.051,2.884
			L162.363,134.408z M165.082,116.078l-0.039,15.967l3.009,0.01c2.632,0.006,4.685-0.709,6.164-2.139
			c1.479-1.432,2.224-3.441,2.228-6.027c0.009-2.584-0.745-4.527-2.258-5.836c-1.512-1.307-3.502-1.962-5.975-1.967L165.082,116.078
			z"/>
		<path fill="#FFFFFF" d="M199.5,134.5l-2.953-0.01l-2.102-5.674l-8.625-0.021l-2.008,5.666l-2.955-0.008l7.939-20.695l2.86,0.008
			L199.5,134.5z M193.623,126.473l-3.109-8.621c-0.098-0.274-0.203-0.759-0.315-1.444h-0.065c-0.101,0.625-0.214,1.104-0.339,1.442
			l-3.125,8.604L193.623,126.473z"/>
		<path fill="#FFFFFF" d="M215.061,116.201l-5.979-0.016l-0.045,18.334l-2.688-0.009l0.047-18.334l-5.951-0.016l0.004-2.382
			l14.619,0.035L215.061,116.201z"/>
		<path fill="#FFFFFF" d="M234.473,134.582l-2.955-0.006l-2.102-5.676l-8.625-0.021l-2.008,5.667l-2.953-0.01l7.938-20.695
			l2.861,0.009L234.473,134.582z M228.594,126.561l-3.107-8.623c-0.098-0.274-0.204-0.758-0.317-1.444h-0.065
			c-0.101,0.625-0.213,1.104-0.338,1.442l-3.123,8.605L228.594,126.561z"/>
	</g>
</g>
</svg>
